<svg xmlns="http://www.w3.org/2000/svg" xmlns:xlink="http://www.w3.org/1999/xlink" width="500" zoomAndPan="magnify" viewBox="0 0 375 374.999991" height="500" preserveAspectRatio="xMidYMid meet" version="1.0"><defs><clipPath id="id1"><path d="M 18 0 L 352 0 L 352 369 L 18 369 Z M 18 0 " clip-rule="nonzero"/></clipPath><clipPath id="id2"><path d="M 224.066406 127.898438 C 225.011719 128.410156 226.160156 128.367188 227.058594 127.785156 L 321.664062 66.730469 C 322.5 66.191406 323.003906 65.265625 323.003906 64.273438 C 323.003906 63.277344 322.5 62.351562 321.664062 61.8125 L 227.0625 0.761719 C 226.160156 0.179688 225.011719 0.136719 224.070312 0.648438 C 223.125 1.160156 222.539062 2.148438 222.539062 3.21875 L 222.539062 33.296875 C 144.875 41.671875 79.257812 67.914062 27.472656 111.316406 C 21.722656 116.132812 18.429688 123.175781 18.429688 130.640625 L 18.429688 178.203125 C 18.429688 182.464844 20.757812 186.652344 25.347656 190.644531 C 41.433594 204.644531 85.96875 216.257812 131.746094 216.257812 C 142.851562 216.257812 154.039062 215.574219 164.902344 214.074219 C 166.042969 213.917969 166.984375 213.105469 167.308594 212.003906 L 183.238281 158.074219 C 183.515625 157.152344 183.3125 156.152344 182.703125 155.402344 C 182.09375 154.65625 181.1875 154.238281 180.191406 154.332031 C 136.460938 157.875 104.660156 152.671875 83.179688 138.429688 C 123.722656 116.546875 170.3125 102.597656 222.539062 96.894531 L 222.539062 125.324219 C 222.539062 126.394531 223.125 127.382812 224.066406 127.898438 Z M 176.421875 160.484375 L 162.230469 208.527344 C 109.378906 215.316406 47.632812 202.277344 29.199219 186.230469 C 27.253906 184.539062 24.992188 182.078125 24.425781 179.421875 C 40.671875 164.992188 58.363281 152.359375 77.449219 141.546875 C 99.421875 157.351562 131.839844 163.582031 176.421875 160.484375 Z M 76.71875 135.25 C 76.28125 135.378906 75.890625 135.601562 75.546875 135.925781 C 57.203125 146.234375 40.082031 158.148438 24.289062 171.734375 L 24.289062 130.640625 C 24.289062 124.914062 26.820312 119.503906 31.238281 115.800781 C 82.691406 72.679688 148.140625 46.789062 225.765625 38.847656 C 227.261719 38.695312 228.398438 37.433594 228.398438 35.933594 L 228.398438 8.59375 L 314.675781 64.273438 L 228.398438 119.953125 L 228.398438 93.644531 C 228.398438 92.816406 228.046875 92.023438 227.429688 91.472656 C 226.816406 90.914062 225.992188 90.644531 225.171875 90.734375 C 169.273438 96.449219 119.605469 111.382812 76.71875 135.25 Z M 351.632812 238.652344 L 351.632812 191.09375 C 351.632812 186.832031 349.300781 182.644531 344.710938 178.652344 C 324.726562 161.253906 260.792969 147.546875 205.15625 155.21875 C 204.015625 155.378906 203.074219 156.1875 202.75 157.292969 L 186.820312 211.214844 C 186.542969 212.140625 186.746094 213.140625 187.355469 213.890625 C 187.964844 214.636719 188.875 215.054688 189.867188 214.960938 C 233.597656 211.414062 265.398438 216.621094 286.882812 230.863281 C 246.339844 252.746094 199.75 266.695312 147.523438 272.398438 L 147.523438 243.96875 C 147.523438 242.894531 146.9375 241.910156 145.996094 241.398438 C 145.050781 240.886719 143.90625 240.929688 143.003906 241.511719 L 48.398438 302.566406 C 47.5625 303.105469 47.058594 304.027344 47.058594 305.023438 C 47.058594 306.019531 47.5625 306.941406 48.398438 307.480469 L 143.003906 368.535156 C 143.488281 368.84375 144.042969 369.003906 144.59375 369.003906 C 145.074219 369.003906 145.558594 368.882812 146 368.644531 C 146.9375 368.132812 147.523438 367.148438 147.523438 366.078125 L 147.523438 335.996094 C 225.1875 327.621094 290.808594 301.378906 342.59375 257.980469 C 348.335938 253.160156 351.632812 246.113281 351.632812 238.652344 Z M 193.640625 208.808594 L 207.832031 160.765625 C 260.683594 153.972656 322.433594 167.019531 340.863281 183.058594 C 342.808594 184.75 345.070312 187.214844 345.636719 189.871094 C 329.394531 204.300781 311.699219 216.933594 292.613281 227.746094 C 270.640625 211.9375 238.210938 205.707031 193.640625 208.808594 Z M 338.824219 253.496094 C 287.371094 296.617188 221.917969 322.507812 144.292969 330.449219 C 142.796875 330.601562 141.664062 331.859375 141.664062 333.359375 L 141.664062 360.699219 L 55.386719 305.023438 L 141.664062 249.34375 L 141.664062 275.652344 C 141.664062 276.480469 142.015625 277.269531 142.628906 277.824219 C 143.246094 278.378906 144.070312 278.648438 144.886719 278.5625 C 200.808594 272.84375 250.5 257.894531 293.398438 234.011719 C 293.78125 233.890625 294.113281 233.691406 294.425781 233.417969 C 312.800781 223.101562 329.953125 211.167969 345.769531 197.5625 L 345.769531 238.652344 C 345.773438 244.382812 343.242188 249.789062 338.824219 253.496094 Z M 338.824219 253.496094 " clip-rule="nonzero"/></clipPath><linearGradient x1="56.868" gradientTransform="matrix(2.929616, 0, 0, 2.926249, 18.428578, 0.29264)" y1="-0.0530052" x2="56.868" gradientUnits="userSpaceOnUse" y2="125.99999" xlink:type="simple" xlink:actuate="onLoad" id="id3" xlink:show="other"><stop stop-opacity="1" stop-color="rgb(100%, 87.098694%, 34.899902%)" offset="0"/><stop stop-opacity="1" stop-color="rgb(100%, 86.987305%, 34.881592%)" offset="0.0078125"/><stop stop-opacity="1" stop-color="rgb(100%, 86.756897%, 34.846497%)" offset="0.015625"/><stop stop-opacity="1" stop-color="rgb(100%, 86.521912%, 34.809875%)" offset="0.0234375"/><stop stop-opacity="1" stop-color="rgb(100%, 86.2854%, 34.773254%)" offset="0.03125"/><stop stop-opacity="1" stop-color="rgb(100%, 86.048889%, 34.735107%)" offset="0.0390625"/><stop stop-opacity="1" stop-color="rgb(100%, 85.813904%, 34.698486%)" offset="0.046875"/><stop stop-opacity="1" stop-color="rgb(100%, 85.577393%, 34.661865%)" offset="0.0546875"/><stop stop-opacity="1" stop-color="rgb(100%, 85.340881%, 34.625244%)" offset="0.0625"/><stop stop-opacity="1" stop-color="rgb(100%, 85.10437%, 34.588623%)" offset="0.0703125"/><stop stop-opacity="1" stop-color="rgb(100%, 84.869385%, 34.552002%)" offset="0.078125"/><stop stop-opacity="1" stop-color="rgb(100%, 84.632874%, 34.515381%)" offset="0.0859375"/><stop stop-opacity="1" stop-color="rgb(100%, 84.396362%, 34.47876%)" offset="0.09375"/><stop stop-opacity="1" stop-color="rgb(100%, 84.161377%, 34.442139%)" offset="0.101562"/><stop stop-opacity="1" stop-color="rgb(100%, 83.924866%, 34.405518%)" offset="0.109375"/><stop stop-opacity="1" stop-color="rgb(100%, 83.688354%, 34.368896%)" offset="0.117188"/><stop stop-opacity="1" stop-color="rgb(100%, 83.453369%, 34.332275%)" offset="0.125"/><stop stop-opacity="1" stop-color="rgb(100%, 83.216858%, 34.295654%)" offset="0.132812"/><stop stop-opacity="1" stop-color="rgb(100%, 82.980347%, 34.259033%)" offset="0.140625"/><stop stop-opacity="1" stop-color="rgb(100%, 82.745361%, 34.220886%)" offset="0.148438"/><stop stop-opacity="1" stop-color="rgb(100%, 82.50885%, 34.184265%)" offset="0.15625"/><stop stop-opacity="1" stop-color="rgb(100%, 82.272339%, 34.147644%)" offset="0.164062"/><stop stop-opacity="1" stop-color="rgb(100%, 82.037354%, 34.111023%)" offset="0.171875"/><stop stop-opacity="1" stop-color="rgb(100%, 81.800842%, 34.074402%)" offset="0.179687"/><stop stop-opacity="1" stop-color="rgb(100%, 81.564331%, 34.037781%)" offset="0.1875"/><stop stop-opacity="1" stop-color="rgb(100%, 81.32782%, 34.00116%)" offset="0.195312"/><stop stop-opacity="1" stop-color="rgb(100%, 81.092834%, 33.964539%)" offset="0.203125"/><stop stop-opacity="1" stop-color="rgb(100%, 80.856323%, 33.927917%)" offset="0.210937"/><stop stop-opacity="1" stop-color="rgb(100%, 80.619812%, 33.891296%)" offset="0.21875"/><stop stop-opacity="1" stop-color="rgb(100%, 80.384827%, 33.854675%)" offset="0.226562"/><stop stop-opacity="1" stop-color="rgb(100%, 80.148315%, 33.818054%)" offset="0.234375"/><stop stop-opacity="1" stop-color="rgb(100%, 79.911804%, 33.781433%)" offset="0.242187"/><stop stop-opacity="1" stop-color="rgb(100%, 79.676819%, 33.743286%)" offset="0.25"/><stop stop-opacity="1" stop-color="rgb(100%, 79.440308%, 33.706665%)" offset="0.257812"/><stop stop-opacity="1" stop-color="rgb(100%, 79.203796%, 33.670044%)" offset="0.265625"/><stop stop-opacity="1" stop-color="rgb(100%, 78.968811%, 33.633423%)" offset="0.273437"/><stop stop-opacity="1" stop-color="rgb(100%, 78.7323%, 33.596802%)" offset="0.28125"/><stop stop-opacity="1" stop-color="rgb(100%, 78.495789%, 33.560181%)" offset="0.289063"/><stop stop-opacity="1" stop-color="rgb(100%, 78.259277%, 33.52356%)" offset="0.296875"/><stop stop-opacity="1" stop-color="rgb(100%, 78.024292%, 33.486938%)" offset="0.304688"/><stop stop-opacity="1" stop-color="rgb(100%, 77.787781%, 33.450317%)" offset="0.3125"/><stop stop-opacity="1" stop-color="rgb(100%, 77.55127%, 33.413696%)" offset="0.320312"/><stop stop-opacity="1" stop-color="rgb(100%, 77.316284%, 33.377075%)" offset="0.328125"/><stop stop-opacity="1" stop-color="rgb(100%, 77.079773%, 33.340454%)" offset="0.335938"/><stop stop-opacity="1" stop-color="rgb(100%, 76.843262%, 33.303833%)" offset="0.34375"/><stop stop-opacity="1" stop-color="rgb(100%, 76.608276%, 33.267212%)" offset="0.351562"/><stop stop-opacity="1" stop-color="rgb(100%, 76.371765%, 33.229065%)" offset="0.359375"/><stop stop-opacity="1" stop-color="rgb(100%, 76.135254%, 33.192444%)" offset="0.367187"/><stop stop-opacity="1" stop-color="rgb(100%, 75.900269%, 33.155823%)" offset="0.375"/><stop stop-opacity="1" stop-color="rgb(100%, 75.663757%, 33.119202%)" offset="0.382813"/><stop stop-opacity="1" stop-color="rgb(100%, 75.427246%, 33.082581%)" offset="0.390625"/><stop stop-opacity="1" stop-color="rgb(100%, 75.192261%, 33.045959%)" offset="0.398438"/><stop stop-opacity="1" stop-color="rgb(100%, 74.95575%, 33.009338%)" offset="0.40625"/><stop stop-opacity="1" stop-color="rgb(100%, 74.719238%, 32.972717%)" offset="0.414062"/><stop stop-opacity="1" stop-color="rgb(100%, 74.482727%, 32.936096%)" offset="0.421875"/><stop stop-opacity="1" stop-color="rgb(100%, 74.247742%, 32.899475%)" offset="0.429688"/><stop stop-opacity="1" stop-color="rgb(100%, 74.01123%, 32.862854%)" offset="0.4375"/><stop stop-opacity="1" stop-color="rgb(100%, 73.774719%, 32.826233%)" offset="0.445312"/><stop stop-opacity="1" stop-color="rgb(100%, 73.539734%, 32.789612%)" offset="0.453125"/><stop stop-opacity="1" stop-color="rgb(100%, 73.303223%, 32.751465%)" offset="0.460937"/><stop stop-opacity="1" stop-color="rgb(100%, 73.066711%, 32.714844%)" offset="0.46875"/><stop stop-opacity="1" stop-color="rgb(100%, 72.831726%, 32.678223%)" offset="0.476563"/><stop stop-opacity="1" stop-color="rgb(100%, 72.595215%, 32.641602%)" offset="0.484375"/><stop stop-opacity="1" stop-color="rgb(100%, 72.358704%, 32.60498%)" offset="0.492188"/><stop stop-opacity="1" stop-color="rgb(100%, 72.123718%, 32.568359%)" offset="0.5"/><stop stop-opacity="1" stop-color="rgb(100%, 71.887207%, 32.531738%)" offset="0.507812"/><stop stop-opacity="1" stop-color="rgb(100%, 71.650696%, 32.495117%)" offset="0.515625"/><stop stop-opacity="1" stop-color="rgb(100%, 71.41571%, 32.458496%)" offset="0.523438"/><stop stop-opacity="1" stop-color="rgb(100%, 71.179199%, 32.421875%)" offset="0.53125"/><stop stop-opacity="1" stop-color="rgb(100%, 70.942688%, 32.385254%)" offset="0.539062"/><stop stop-opacity="1" stop-color="rgb(100%, 70.706177%, 32.348633%)" offset="0.546875"/><stop stop-opacity="1" stop-color="rgb(100%, 70.471191%, 32.312012%)" offset="0.554688"/><stop stop-opacity="1" stop-color="rgb(100%, 70.23468%, 32.275391%)" offset="0.5625"/><stop stop-opacity="1" stop-color="rgb(100%, 69.998169%, 32.237244%)" offset="0.570312"/><stop stop-opacity="1" stop-color="rgb(100%, 69.763184%, 32.200623%)" offset="0.578125"/><stop stop-opacity="1" stop-color="rgb(100%, 69.526672%, 32.164001%)" offset="0.585938"/><stop stop-opacity="1" stop-color="rgb(100%, 69.290161%, 32.12738%)" offset="0.59375"/><stop stop-opacity="1" stop-color="rgb(100%, 69.055176%, 32.090759%)" offset="0.601563"/><stop stop-opacity="1" stop-color="rgb(100%, 68.818665%, 32.054138%)" offset="0.609375"/><stop stop-opacity="1" stop-color="rgb(100%, 68.582153%, 32.017517%)" offset="0.617188"/><stop stop-opacity="1" stop-color="rgb(100%, 68.347168%, 31.980896%)" offset="0.625"/><stop stop-opacity="1" stop-color="rgb(100%, 68.110657%, 31.944275%)" offset="0.632812"/><stop stop-opacity="1" stop-color="rgb(100%, 67.874146%, 31.907654%)" offset="0.640625"/><stop stop-opacity="1" stop-color="rgb(100%, 67.637634%, 31.871033%)" offset="0.648438"/><stop stop-opacity="1" stop-color="rgb(100%, 67.402649%, 31.834412%)" offset="0.65625"/><stop stop-opacity="1" stop-color="rgb(100%, 67.166138%, 31.797791%)" offset="0.664062"/><stop stop-opacity="1" stop-color="rgb(100%, 66.929626%, 31.759644%)" offset="0.671875"/><stop stop-opacity="1" stop-color="rgb(100%, 66.694641%, 31.723022%)" offset="0.679688"/><stop stop-opacity="1" stop-color="rgb(100%, 66.45813%, 31.686401%)" offset="0.6875"/><stop stop-opacity="1" stop-color="rgb(100%, 66.221619%, 31.64978%)" offset="0.695312"/><stop stop-opacity="1" stop-color="rgb(100%, 65.986633%, 31.613159%)" offset="0.703125"/><stop stop-opacity="1" stop-color="rgb(100%, 65.750122%, 31.576538%)" offset="0.710937"/><stop stop-opacity="1" stop-color="rgb(100%, 65.513611%, 31.539917%)" offset="0.71875"/><stop stop-opacity="1" stop-color="rgb(100%, 65.278625%, 31.503296%)" offset="0.726562"/><stop stop-opacity="1" stop-color="rgb(100%, 65.042114%, 31.466675%)" offset="0.734375"/><stop stop-opacity="1" stop-color="rgb(100%, 64.805603%, 31.430054%)" offset="0.742188"/><stop stop-opacity="1" stop-color="rgb(100%, 64.570618%, 31.393433%)" offset="0.75"/><stop stop-opacity="1" stop-color="rgb(100%, 64.334106%, 31.356812%)" offset="0.757812"/><stop stop-opacity="1" stop-color="rgb(100%, 64.097595%, 31.32019%)" offset="0.765625"/><stop stop-opacity="1" stop-color="rgb(100%, 63.861084%, 31.283569%)" offset="0.773438"/><stop stop-opacity="1" stop-color="rgb(100%, 63.626099%, 31.245422%)" offset="0.78125"/><stop stop-opacity="1" stop-color="rgb(100%, 63.389587%, 31.208801%)" offset="0.789063"/><stop stop-opacity="1" stop-color="rgb(100%, 63.153076%, 31.17218%)" offset="0.796875"/><stop stop-opacity="1" stop-color="rgb(100%, 62.918091%, 31.135559%)" offset="0.804688"/><stop stop-opacity="1" stop-color="rgb(100%, 62.68158%, 31.098938%)" offset="0.8125"/><stop stop-opacity="1" stop-color="rgb(100%, 62.445068%, 31.062317%)" offset="0.820312"/><stop stop-opacity="1" stop-color="rgb(100%, 62.210083%, 31.025696%)" offset="0.828125"/><stop stop-opacity="1" stop-color="rgb(100%, 61.973572%, 30.989075%)" offset="0.835938"/><stop stop-opacity="1" stop-color="rgb(100%, 61.737061%, 30.952454%)" offset="0.84375"/><stop stop-opacity="1" stop-color="rgb(100%, 61.502075%, 30.915833%)" offset="0.851562"/><stop stop-opacity="1" stop-color="rgb(100%, 61.265564%, 30.879211%)" offset="0.859375"/><stop stop-opacity="1" stop-color="rgb(100%, 61.029053%, 30.84259%)" offset="0.867188"/><stop stop-opacity="1" stop-color="rgb(100%, 60.794067%, 30.805969%)" offset="0.875"/><stop stop-opacity="1" stop-color="rgb(100%, 60.557556%, 30.767822%)" offset="0.882812"/><stop stop-opacity="1" stop-color="rgb(100%, 60.321045%, 30.731201%)" offset="0.890625"/><stop stop-opacity="1" stop-color="rgb(100%, 60.084534%, 30.69458%)" offset="0.898437"/><stop stop-opacity="1" stop-color="rgb(100%, 59.849548%, 30.657959%)" offset="0.90625"/><stop stop-opacity="1" stop-color="rgb(100%, 59.613037%, 30.621338%)" offset="0.914062"/><stop stop-opacity="1" stop-color="rgb(100%, 59.376526%, 30.584717%)" offset="0.921875"/><stop stop-opacity="1" stop-color="rgb(100%, 59.141541%, 30.548096%)" offset="0.929688"/><stop stop-opacity="1" stop-color="rgb(100%, 58.905029%, 30.511475%)" offset="0.9375"/><stop stop-opacity="1" stop-color="rgb(100%, 58.668518%, 30.474854%)" offset="0.945312"/><stop stop-opacity="1" stop-color="rgb(100%, 58.433533%, 30.438232%)" offset="0.953125"/><stop stop-opacity="1" stop-color="rgb(100%, 58.197021%, 30.401611%)" offset="0.960938"/><stop stop-opacity="1" stop-color="rgb(100%, 57.96051%, 30.36499%)" offset="0.96875"/><stop stop-opacity="1" stop-color="rgb(100%, 57.725525%, 30.328369%)" offset="0.976562"/><stop stop-opacity="1" stop-color="rgb(100%, 57.489014%, 30.291748%)" offset="0.984375"/><stop stop-opacity="1" stop-color="rgb(100%, 57.252502%, 30.253601%)" offset="0.992188"/><stop stop-opacity="1" stop-color="rgb(100%, 57.015991%, 30.21698%)" offset="1"/></linearGradient><clipPath id="id4"><path d="M 80.875 0 L 217.375 0 L 217.375 137.25 L 80.875 137.25 Z M 80.875 0 " clip-rule="nonzero"/></clipPath><clipPath id="id5"><path d="M 149.304688 231.78125 L 285.804688 231.78125 L 285.804688 369 L 149.304688 369 Z M 149.304688 231.78125 " clip-rule="nonzero"/></clipPath></defs><g clip-path="url(#id1)"><g clip-path="url(#id2)"><path fill="url(#id3)" d="M 18.429688 0.136719 L 18.429688 369 L 351.632812 369 L 351.632812 0.136719 Z M 18.429688 0.136719 " fill-rule="nonzero"/></g></g><g clip-path="url(#id4)"><path fill="rgb(87.838745%, 38.038635%, 28.62854%)" d="M 217.375 68.628906 C 217.375 106.453125 186.832031 137.058594 149.125 137.058594 C 111.433594 137.058594 80.875 106.453125 80.875 68.628906 C 80.875 30.828125 111.433594 0.191406 149.125 0.191406 C 186.832031 0.191406 217.375 30.828125 217.375 68.628906 Z M 217.375 68.628906 " fill-opacity="1" fill-rule="nonzero"/></g><path fill="rgb(100%, 100%, 100%)" d="M 171.125 30.972656 L 168.035156 45.515625 C 165.066406 42.542969 160.734375 41.058594 155.039062 41.058594 C 149.351562 41.058594 144.742188 43.109375 141.214844 47.191406 C 139.226562 49.5 137.808594 52.398438 136.972656 55.867188 L 165.777344 55.867188 L 164.09375 63.996094 L 135.929688 63.996094 C 135.898438 64.808594 135.878906 65.839844 135.878906 67.101562 C 135.878906 68.324219 135.910156 69.601562 135.976562 70.933594 L 162.640625 70.933594 L 160.964844 79.074219 L 137.082031 79.074219 C 137.953125 82.816406 139.300781 85.753906 141.113281 87.894531 C 144.605469 92.023438 149.144531 94.09375 154.730469 94.09375 C 161.433594 94.09375 166.773438 92.027344 170.753906 87.894531 L 170.753906 103.960938 C 166.214844 106.234375 160.925781 107.382812 154.886719 107.382812 C 144.6875 107.382812 136.3125 103.878906 129.746094 96.882812 C 125.285156 92.117188 122.328125 86.179688 120.898438 79.074219 L 113.148438 79.074219 L 114.832031 70.933594 L 119.957031 70.933594 C 119.921875 70.089844 119.902344 69.207031 119.902344 68.261719 C 119.902344 66.652344 119.933594 65.238281 120.007812 64.003906 L 113.140625 64.003906 L 114.820312 55.871094 L 121.054688 55.871094 C 122.519531 48.902344 125.433594 43.078125 129.796875 38.375 C 136.398438 31.3125 145.070312 27.785156 155.824219 27.785156 C 161.695312 27.777344 166.796875 28.832031 171.125 30.972656 Z M 171.125 30.972656 " fill-opacity="1" fill-rule="nonzero"/><g clip-path="url(#id5)"><path fill="rgb(87.838745%, 38.038635%, 28.62854%)" d="M 285.804688 300.410156 C 285.804688 338.234375 255.253906 368.839844 217.554688 368.839844 C 179.855469 368.839844 149.304688 338.234375 149.304688 300.410156 C 149.304688 262.625 179.855469 231.972656 217.554688 231.972656 C 255.25 231.972656 285.804688 262.625 285.804688 300.410156 Z M 285.804688 300.410156 " fill-opacity="1" fill-rule="nonzero"/></g><path fill="rgb(100%, 100%, 100%)" d="M 213.886719 325.203125 L 213.886719 303.207031 C 207.046875 301.25 202.027344 298.28125 198.828125 294.308594 C 195.636719 290.339844 194.039062 285.507812 194.039062 279.839844 C 194.039062 274.101562 195.851562 269.28125 199.457031 265.371094 C 203.074219 261.472656 207.882812 259.226562 213.886719 258.621094 L 213.886719 253.4375 L 221.480469 253.4375 L 221.480469 258.628906 C 227.039062 259.300781 231.449219 261.199219 234.726562 264.332031 C 238.011719 267.460938 240.105469 271.648438 241.011719 276.902344 L 227.769531 278.640625 C 226.960938 274.507812 224.871094 271.710938 221.480469 270.238281 L 221.480469 290.761719 C 229.863281 293.046875 235.566406 295.996094 238.605469 299.613281 C 241.640625 303.238281 243.160156 307.890625 243.160156 313.5625 C 243.160156 319.894531 241.242188 325.226562 237.425781 329.574219 C 233.601562 333.917969 228.285156 336.570312 221.476562 337.546875 L 221.476562 347.375 L 213.882812 347.375 L 213.882812 337.8125 C 207.84375 337.085938 202.9375 334.816406 199.171875 331.039062 C 195.398438 327.253906 192.988281 321.914062 191.941406 315.03125 L 205.613281 313.558594 C 206.164062 316.351562 207.210938 318.773438 208.75 320.796875 C 210.292969 322.832031 212.003906 324.300781 213.886719 325.203125 Z M 213.886719 270.085938 C 211.824219 270.785156 210.191406 271.976562 208.960938 273.660156 C 207.742188 275.339844 207.136719 277.191406 207.136719 279.214844 C 207.136719 281.078125 207.6875 282.796875 208.8125 284.390625 C 209.925781 285.984375 211.617188 287.273438 213.890625 288.25 L 213.890625 270.085938 Z M 221.476562 325.957031 C 224.101562 325.457031 226.230469 324.246094 227.871094 322.296875 C 229.515625 320.359375 230.335938 318.070312 230.335938 315.449219 C 230.335938 313.101562 229.644531 311.082031 228.261719 309.378906 C 226.886719 307.683594 224.625 306.375 221.488281 305.457031 Z M 221.476562 325.957031 " fill-opacity="1" fill-rule="nonzero"/></svg>